<svg class="edit" width="20" height="20" viewBox="0 0 28 27" fill="none" xmlns="http://www.w3.org/2000/svg">
<path d="M20.7402 1.80782C21.0858 1.47245 21.4962 1.20642 21.9478 1.02492C22.3994 0.843415 22.8834 0.75 23.3722 0.75C23.8612 0.75 24.3452 0.843415 24.7968 1.02492C25.2484 1.20642 25.6586 1.47245 26.0044 1.80782C26.35 2.14319 26.6242 2.54134 26.8112 2.97952C26.9982 3.4177 27.0946 3.88735 27.0946 4.36163C27.0946 4.83592 26.9982 5.30555 26.8112 5.74373C26.6242 6.18191 26.35 6.58006 26.0044 6.91543L8.2381 24.1536L1 26.069L2.97402 19.0461L20.7402 1.80782Z" 
 stroke-linecap="round" stroke-linejoin="round"/>
</svg>